<svg height="512pt" viewBox="0 -142 512 512" width="512pt" xmlns="http://www.w3.org/2000/svg"><path d="m501.390625 227.363281h-116.058594v-109.398437h116.058594c5.859375 0 10.609375 4.75 10.609375 10.609375v88.179687c0 5.859375-4.75 10.609375-10.609375 10.609375zm0 0" fill="#d93131"/><path d="m293.421875 227.367188h-219.109375c-41.039062 0-74.3125-33.273438-74.3125-74.316407v-94.070312h293.421875zm0 0" fill="#f9a806"/><path d="m293.421875 58.980469c0-32.574219-65.6875-58.980469-146.710937-58.980469-81.027344 0-146.710938 26.40625-146.710938 58.980469 0 32.578125 65.683594 58.984375 146.710938 58.984375 81.023437 0 146.710937-26.40625 146.710937-58.984375zm0 0" fill="#ffb509"/><path d="m293.414062 58.976562c0 32.578126-65.679687 58.988282-146.699218 58.988282-70.871094 0-129.992188-20.199219-143.710938-47.0625 26.800782 14.183594 69.175782 23.335937 116.886719 23.335937 81.023437 0 146.703125-26.410156 146.703125-58.984375 0-4.085937-1.03125-8.070312-3-11.917968 18.710938 9.894531 29.820312 22.242187 29.820312 35.640624zm0 0" fill="#f9a806"/><path d="m235.402344 58.980469c0-16.515625-39.707032-29.90625-88.691406-29.90625-48.984376 0-88.695313 13.390625-88.695313 29.90625 0 16.519531 39.710937 29.90625 88.695313 29.90625 48.984374 0 88.691406-13.386719 88.691406-29.90625zm0 0" fill="#d3d3d8"/><path d="m235.398438 58.976562c0 16.515626-39.707032 29.90625-88.683594 29.90625-37.449219 0-69.480469-7.828124-82.488282-18.886718 15.125 4.035156 34.257813 6.457031 55.078126 6.457031 48.980468 0 88.683593-13.390625 88.683593-29.90625 0-3.886719-2.195312-7.601563-6.207031-11.015625 20.484375 5.476562 33.617188 13.945312 33.617188 23.445312zm0 0" fill="#babac0"/><path d="m501.390625 227.363281h-17.410156v-109.398437h17.410156c5.859375 0 10.609375 4.75 10.609375 10.609375v88.179687c0 5.859375-4.75 10.609375-10.609375 10.609375zm0 0" fill="#cb2c2c"/><path d="m478.101562 172.664062c0 12.269532-9.945312 22.21875-22.21875 22.21875-12.269531 0-22.21875-9.949218-22.21875-22.21875 0-12.269531 9.949219-22.21875 22.21875-22.21875 12.273438 0 22.21875 9.949219 22.21875 22.21875zm0 0" fill="#d3d3d8"/><path d="m478.101562 172.664062c0 12.269532-9.945312 22.21875-22.21875 22.21875-12.269531 0-22.21875-9.949218-22.21875-22.21875 0-12.269531 9.949219-22.21875 22.21875-22.21875 12.273438 0 22.21875 9.949219 22.21875 22.21875zm0 0" fill="#d3d3d8"/><path d="m478.101562 172.660156c0 12.273438-9.945312 22.21875-22.21875 22.21875-9.214843 0-17.117187-5.601562-20.488281-13.597656 2.648438 1.117188 5.570313 1.734375 8.621094 1.734375 12.277344 0 22.222656-9.945313 22.222656-22.21875 0-3.054687-.621093-5.972656-1.734375-8.613281 7.984375 3.363281 13.597656 11.261718 13.597656 20.476562zm0 0" fill="#babac0"/><path d="m399.769531 117.964844v109.398437h-325.453125c-41.046875 0-74.316406-33.269531-74.316406-74.308593v-94.078126c0 32.582032 65.6875 58.988282 146.707031 58.988282zm0 0" fill="#ffb509"/><path d="m370.886719 117.964844h28.886719v109.398437h-28.886719zm0 0" fill="#f9a806"/><g fill="#d88d09"><path d="m35.859375 180.5v36.15625c-5.707031-3.457031-10.90625-7.664062-15.476563-12.480469v-23.675781c0-4.273438 3.46875-7.738281 7.738282-7.738281 4.28125 0 7.738281 3.464843 7.738281 7.738281zm0 0"/><path d="m69.644531 198.335938v28.882812c-5.335937-.328125-10.511719-1.226562-15.476562-2.617188v-26.265624c0-4.269532 3.46875-7.738282 7.738281-7.738282 4.28125 0 7.738281 3.46875 7.738281 7.738282zm0 0"/><path d="m103.4375 198.335938v29.027343h-15.472656v-29.027343c0-4.273438 3.457031-7.738282 7.734375-7.738282 4.273437 0 7.738281 3.46875 7.738281 7.738282zm0 0"/><path d="m137.222656 198.335938v29.027343h-15.472656v-29.027343c0-4.273438 3.453125-7.738282 7.734375-7.738282 4.273437 0 7.738281 3.46875 7.738281 7.738282zm0 0"/><path d="m171.007812 198.335938v29.027343h-15.476562v-29.027343c0-4.273438 3.46875-7.738282 7.738281-7.738282s7.738281 3.46875 7.738281 7.738282zm0 0"/><path d="m204.792969 180.5v46.863281h-15.476563v-46.863281c0-4.273438 3.46875-7.738281 7.738282-7.738281 4.269531 0 7.738281 3.464843 7.738281 7.738281zm0 0"/><path d="m238.574219 198.335938v29.027343h-15.472657v-29.027343c0-4.273438 3.464844-7.738282 7.738282-7.738282 4.269531 0 7.734375 3.46875 7.734375 7.738282zm0 0"/><path d="m272.359375 198.335938v29.027343h-15.472656v-29.027343c0-4.273438 3.464843-7.738282 7.738281-7.738282 4.269531 0 7.734375 3.46875 7.734375 7.738282zm0 0"/><path d="m306.144531 198.335938v29.027343h-15.472656v-29.027343c0-4.273438 3.464844-7.738282 7.738281-7.738282 4.269532 0 7.734375 3.46875 7.734375 7.738282zm0 0"/><path d="m339.929688 198.335938v29.027343h-15.472657v-29.027343c0-4.273438 3.464844-7.738282 7.734375-7.738282 4.273438 0 7.738282 3.46875 7.738282 7.738282zm0 0"/><path d="m373.714844 180.5v46.863281h-15.472656v-46.863281c0-4.273438 3.464843-7.738281 7.734374-7.738281 4.28125 0 7.738282 3.464843 7.738282 7.738281zm0 0"/></g></svg>