<?xml version="1.0" encoding="iso-8859-1"?>
<!-- Generator: Adobe Illustrator 19.0.0, SVG Export Plug-In . SVG Version: 6.00 Build 0)  -->
<svg version="1.1" id="Capa_1" xmlns="http://www.w3.org/2000/svg" xmlns:xlink="http://www.w3.org/1999/xlink" x="0px" y="0px"
	 viewBox="0 0 512 512" style="enable-background:new 0 0 512 512;" xml:space="preserve">
<rect x="119.616" y="46.624" style="fill:#F1E9C5;" width="272.771" height="199.863"/>
<rect x="119.616" y="199.883" style="fill:#E2D9B3;" width="272.771" height="46.599"/>
<path style="fill:#2A7182;" d="M405.733,267.56H106.267c-11.639,0-21.073-9.435-21.073-21.073l0,0
	c0-11.639,9.435-21.073,21.073-21.073h299.466c11.639,0,21.073,9.435,21.073,21.073l0,0
	C426.805,258.125,417.371,267.56,405.733,267.56z"/>
<polygon style="fill:#1E5D68;" points="476.793,334.966 35.207,334.966 87.696,287.338 109.495,267.559 402.505,267.559 
	424.304,287.338 "/>
<path style="fill:#2A7182;" d="M494.532,436.053H17.468c-6.7,0-11.49-6.49-9.51-12.89l12.13-39.249l15.119-48.948h441.585
	l15.119,48.948l12.13,39.249C506.022,429.563,501.232,436.053,494.532,436.053z"/>
<path style="fill:#1E5D68;" d="M499.353,407.994H12.646l-4.688,15.169c-1.98,6.4,2.81,12.89,9.51,12.89h477.064
	c6.7,0,11.49-6.49,9.51-12.89L499.353,407.994z"/>
<rect x="14.459" y="436.045" style="fill:#CBCFD1;" width="483.084" height="29.325"/>
<rect x="14.459" y="436.045" style="fill:#9DA5A8;" width="483.084" height="14.663"/>
<g>
	<rect x="97.746" y="307.899" style="fill:#F1E9C5;" width="31.219" height="27.069"/>
	<rect x="154.804" y="307.899" style="fill:#F1E9C5;" width="31.219" height="27.069"/>
	<rect x="211.863" y="307.899" style="fill:#F1E9C5;" width="31.219" height="27.069"/>
	<rect x="268.921" y="307.899" style="fill:#F1E9C5;" width="31.219" height="27.069"/>
	<rect x="325.979" y="307.899" style="fill:#F1E9C5;" width="31.219" height="27.069"/>
	<rect x="383.027" y="307.899" style="fill:#F1E9C5;" width="31.219" height="27.069"/>
	<rect x="68.858" y="357.398" style="fill:#F1E9C5;" width="31.219" height="27.069"/>
	<rect x="125.915" y="357.398" style="fill:#F1E9C5;" width="31.219" height="27.069"/>
	<rect x="182.973" y="357.398" style="fill:#F1E9C5;" width="31.219" height="27.069"/>
	<rect x="240.022" y="357.398" style="fill:#F1E9C5;" width="31.219" height="27.069"/>
	<rect x="297.08" y="357.398" style="fill:#F1E9C5;" width="31.219" height="27.069"/>
	<rect x="354.138" y="357.398" style="fill:#F1E9C5;" width="31.219" height="27.069"/>
	<rect x="411.926" y="357.398" style="fill:#F1E9C5;" width="31.219" height="27.069"/>
	<rect x="68.858" y="408.976" style="fill:#F1E9C5;" width="31.219" height="27.069"/>
	<rect x="125.915" y="408.976" style="fill:#F1E9C5;" width="31.219" height="27.069"/>
	<rect x="185.303" y="408.976" style="fill:#F1E9C5;" width="140.675" height="27.069"/>
	<rect x="354.138" y="408.976" style="fill:#F1E9C5;" width="31.219" height="27.069"/>
	<rect x="411.926" y="408.976" style="fill:#F1E9C5;" width="31.219" height="27.069"/>
</g>
<path d="M511.207,420.947l-27.252-88.196c-0.027-0.088-0.071-0.167-0.102-0.254c-0.074-0.211-0.156-0.418-0.249-0.623
	c-0.07-0.155-0.143-0.307-0.223-0.455c-0.102-0.189-0.214-0.372-0.333-0.553c-0.096-0.146-0.191-0.29-0.296-0.428
	c-0.125-0.166-0.263-0.322-0.403-0.478c-0.121-0.135-0.241-0.268-0.372-0.393c-0.052-0.05-0.095-0.108-0.149-0.157l-63.266-57.406
	c9.327-4.709,15.741-14.376,15.741-25.517c0-15.755-12.818-28.573-28.572-28.573h-5.849v-59.912c0-4.143-3.357-7.5-7.5-7.5
	c-4.143,0-7.5,3.357-7.5,7.5v59.912h-23.245v-23.226c0-4.143-3.357-7.5-7.5-7.5c-4.143,0-7.5,3.357-7.5,7.5v23.226H127.114V54.126
	h257.77v73.778c0,4.143,3.357,7.5,7.5,7.5c4.143,0,7.5-3.357,7.5-7.5V46.626c0-4.143-3.357-7.5-7.5-7.5h-272.77
	c-4.143,0-7.5,3.357-7.5,7.5v171.288h-5.849c-13.16,0-24.263,8.946-27.567,21.073h-2.342v-44.3c0-4.143-3.357-7.5-7.5-7.5
	s-7.5,3.357-7.5,7.5v51.799c0,4.143,3.357,7.5,7.5,7.5H78.7c2.146,7.877,7.582,14.406,14.737,18.017L30.171,329.41
	c-0.054,0.049-0.096,0.107-0.149,0.157c-0.13,0.125-0.25,0.258-0.372,0.393c-0.14,0.156-0.278,0.313-0.403,0.478
	c-0.105,0.138-0.2,0.282-0.296,0.428c-0.119,0.181-0.231,0.364-0.333,0.553c-0.08,0.149-0.153,0.3-0.223,0.455
	c-0.093,0.205-0.175,0.411-0.249,0.623c-0.03,0.087-0.074,0.165-0.102,0.254L0.793,420.947c-1.653,5.351-0.694,11.004,2.63,15.509
	c1.022,1.385,2.214,2.587,3.537,3.59v25.327c0,4.143,3.357,7.5,7.5,7.5h41.548c4.143,0,7.5-3.357,7.5-7.5c0-4.143-3.357-7.5-7.5-7.5
	H21.959v-14.326h46.898h31.22h25.837h31.22h28.165h140.676h28.165h31.22h26.562h31.22h46.898v14.326H86.237
	c-4.143,0-7.5,3.357-7.5,7.5c0,4.143,3.357,7.5,7.5,7.5H497.54c4.143,0,7.5-3.357,7.5-7.5v-25.327
	c1.323-1.003,2.515-2.204,3.537-3.59C511.902,431.951,512.861,426.297,511.207,420.947z M404.878,279.841H107.121l5.27-4.782
	h287.217L404.878,279.841z M106.266,232.914h299.467c7.484,0,13.573,6.089,13.573,13.574c0,7.484-6.089,13.573-13.573,13.573h-3.229
	H109.496h-3.229c-7.484,0-13.573-6.089-13.573-13.573C92.693,239.002,98.782,232.914,106.266,232.914z M90.591,294.841H421.41
	l35.954,32.624h-35.613v-19.569c0-4.143-3.357-7.5-7.5-7.5h-31.22c-4.143,0-7.5,3.357-7.5,7.5v19.569h-10.838v-19.569
	c0-4.143-3.357-7.5-7.5-7.5h-31.219c-4.143,0-7.5,3.357-7.5,7.5v19.569h-10.838v-19.569c0-4.143-3.357-7.5-7.5-7.5h-31.22
	c-4.143,0-7.5,3.357-7.5,7.5v19.569h-10.837v-19.569c0-4.143-3.357-7.5-7.5-7.5h-31.22c-4.143,0-7.5,3.357-7.5,7.5v19.569h-10.838
	v-19.569c0-4.143-3.357-7.5-7.5-7.5h-31.219c-4.143,0-7.5,3.357-7.5,7.5v19.569h-10.838v-19.569c0-4.143-3.357-7.5-7.5-7.5H97.749
	c-4.143,0-7.5,3.357-7.5,7.5v19.569H54.637L90.591,294.841z M435.642,364.896v12.069h-16.22v-12.069H435.642z M411.922,401.479
	c-4.143,0-7.5,3.357-7.5,7.5v19.569H392.86v-19.569c0-4.143-3.357-7.5-7.5-7.5h-8.11v-9.515h8.11c4.143,0,7.5-3.357,7.5-7.5v-27.068
	c0-4.143-3.357-7.5-7.5-7.5h-12.988l-9.333-7.433h19.99h12.989l11.313,9.01c-1.767,1.372-2.909,3.511-2.909,5.922v27.068
	c0,4.143,3.357,7.5,7.5,7.5h7.384v9.515h-7.384V401.479z M354.14,401.479c-4.143,0-7.5,3.357-7.5,7.5v19.569h-13.166v-19.569
	c0-4.143-3.357-7.5-7.5-7.5h-5.782v-9.515h8.11c4.143,0,7.5-3.357,7.5-7.5v-27.068c0-4.143-3.357-7.5-7.5-7.5h-12.989l-9.332-7.433
	h19.992h12.987l10.962,8.731c-1.981,1.35-3.283,3.623-3.283,6.202v27.068c0,4.143,3.357,7.5,7.5,7.5h8.11v9.515L354.14,401.479
	L354.14,401.479z M263.136,401.479v-9.515h8.11c4.143,0,7.5-3.357,7.5-7.5v-27.068c0-4.143-3.357-7.5-7.5-7.5h-8.11v-7.433h5.782
	h12.989l10.961,8.73c-1.982,1.35-3.284,3.623-3.284,6.203v27.068c0,4.143,3.357,7.5,7.5,7.5h8.11v9.515H263.136z M206.081,401.479
	v-9.515h8.11c4.143,0,7.5-3.357,7.5-7.5v-27.068c0-2.49-1.218-4.689-3.085-6.054l11.436-8.879h13.041h5.056v7.433h-8.11
	c-4.143,0-7.5,3.357-7.5,7.5v27.068c0,4.143,3.357,7.5,7.5,7.5h8.11v9.515L206.081,401.479L206.081,401.479z M185.298,401.479
	c-4.143,0-7.5,3.357-7.5,7.5v19.569h-13.166v-19.569c0-4.143-3.357-7.5-7.5-7.5h-8.11v-9.515h8.11c4.143,0,7.5-3.357,7.5-7.5
	v-27.068c0-2.49-1.218-4.689-3.084-6.053l11.436-8.879h13.04h19.559l-9.573,7.433H182.97c-4.143,0-7.5,3.357-7.5,7.5v27.068
	c0,4.143,3.357,7.5,7.5,7.5h8.11v9.515h-5.782V401.479z M125.914,401.479c-4.143,0-7.5,3.357-7.5,7.5v19.569h-10.838v-19.569
	c0-4.143-3.357-7.5-7.5-7.5h-8.11v-9.515h8.11c4.143,0,7.5-3.357,7.5-7.5v-27.068c0-2.49-1.218-4.689-3.084-6.053l11.436-8.879
	h13.041h19.558l-9.573,7.433h-13.041c-4.143,0-7.5,3.357-7.5,7.5v27.068c0,4.143,3.357,7.5,7.5,7.5h8.11v9.515h-8.11V401.479z
	 M92.577,364.896v12.069h-16.22v-12.069H92.577z M121.469,327.465h-16.22v-12.07h16.22V327.465z M178.525,327.465h-16.219v-12.07
	h16.219V327.465z M133.414,376.965v-12.069h16.22v12.069H133.414z M320.803,364.896v12.069h-16.22v-12.069H320.803z
	 M292.638,327.465h-16.22v-12.07h16.22V327.465z M235.582,327.465h-16.22v-12.07h16.22V327.465z M190.47,376.965v-12.069h16.22
	v12.069H190.47z M247.526,376.965v-12.069h16.22v12.069H247.526z M377.86,364.896v12.069h-16.22v-12.069H377.86z M349.694,327.465
	h-16.219v-12.07h16.219V327.465z M406.75,327.465h-16.22v-12.07h16.22V327.465z M17.465,428.548c-1.076,0-1.697-0.624-1.972-0.996
	c-0.275-0.372-0.688-1.149-0.369-2.178l25.618-82.91h50.728l-9.573,7.433H68.857c-4.143,0-7.5,3.357-7.5,7.5v27.068
	c0,4.143,3.357,7.5,7.5,7.5h8.11v9.515h-8.11c-4.143,0-7.5,3.357-7.5,7.5v19.569L17.465,428.548L17.465,428.548z M76.357,428.548
	v-12.07h16.22v12.07H76.357z M133.414,428.548v-12.07h16.22v12.07H133.414z M192.798,428.548v-12.07h125.677v12.07H192.798z
	 M361.64,428.548v-12.07h16.22v12.07H361.64z M419.422,428.548v-12.07h16.22v12.07H419.422z M450.642,428.548v-19.569
	c0-4.143-3.357-7.5-7.5-7.5h-8.837v-9.515h8.837c4.143,0,7.5-3.357,7.5-7.5v-27.068c0-4.143-3.357-7.5-7.5-7.5h-13.715l-9.332-7.433
	h51.162l25.618,82.91c0.318,1.028-0.095,1.806-0.369,2.178c-0.274,0.372-0.896,0.996-1.972,0.996L450.642,428.548L450.642,428.548z"
	/>
<path d="M167.137,92.645h38.301c4.143,0,7.5-3.357,7.5-7.5c0-4.143-3.357-7.5-7.5-7.5h-38.301c-4.143,0-7.5,3.357-7.5,7.5
	C159.637,89.288,162.995,92.645,167.137,92.645z"/>
<path d="M354.14,129.92H167.137c-4.143,0-7.5,3.357-7.5,7.5s3.357,7.5,7.5,7.5H354.14c4.143,0,7.5-3.357,7.5-7.5
	S358.283,129.92,354.14,129.92z"/>
<path d="M354.14,163.236H167.137c-4.143,0-7.5,3.357-7.5,7.5s3.357,7.5,7.5,7.5H354.14c4.143,0,7.5-3.357,7.5-7.5
	S358.283,163.236,354.14,163.236z"/>
<g>
</g>
<g>
</g>
<g>
</g>
<g>
</g>
<g>
</g>
<g>
</g>
<g>
</g>
<g>
</g>
<g>
</g>
<g>
</g>
<g>
</g>
<g>
</g>
<g>
</g>
<g>
</g>
<g>
</g>
</svg>
